# xmcd
#
# Track frame offsets: 
#        150
#        12605
#        28564
#        43931
#        56440
#        74277
#        91000
#        108421
#        124324
#        138881
#        151925
#        171086
#        188472
#
# Disc length: 2702 seconds
#
# Revision: 7
# Processed by: cddbd v1.5.2PL0 Copyright (c) Steve Scherf et al.
# Submitted via: ExactAudioCopy v1.0b3
#
DISCID=a50a8c0d
DTITLE=Roger Cicero - Beziehungsweise
DYEAR=2007
DGENRE=Pop
TTITLE0=Die Liste
TTITLE1=Nimm deinen Kerl zurueck
TTITLE2=Kein Abendessen
TTITLE3=Sie will es nun mal
TTITLE4=Ich hab das Gefuehl fuer dich verlor'n
TTITLE5=Das Experiment
TTITLE6=Wovon traeumst du nachts
TTITLE7=Der Anruf
TTITLE8=Schoener war's ohne
TTITLE9=Alle Moebel verrueckt
TTITLE10=Gute Freunde
TTITLE11=Ich haett' so gern noch Tschuess gesagt
TTITLE12=Bin heute Abend bei dir
EXTD=
EXTT0=
EXTT1=
EXTT2=
EXTT3=
EXTT4=
EXTT5=
EXTT6=
EXTT7=
EXTT8=
EXTT9=
EXTT10=
EXTT11=
EXTT12=
PLAYORDER=
